<svg id="icons" xmlns="http://www.w3.org/2000/svg" viewBox="0 0 110 110"><title>red-wine-bottle-glass</title><circle cx="55" cy="55" r="55" fill="#ffd147"/><g id="red-wine-bottle-glass"><g id="bottlee"><path d="M48,41V26a1,1,0,0,0-1-1H43a1,1,0,0,0-1,1V41s-6,3-6,8V83a2.06,2.06,0,0,0,2.12,2H51.88A2.06,2.06,0,0,0,54,83V49C54,44,48,41,48,41Z" fill="#fff"/><rect x="42" y="25" width="4" height="11" fill="#fff"/><rect x="44" y="32" width="4" height="4" fill="#ccd1d9"/><path d="M44,36v6s-5,2-5,7V85H51.88A2.06,2.06,0,0,0,54,83V49c0-5-5-7-5-7l-1-6Z" fill="#f2633a"/><path d="M46,81a7.92,7.92,0,0,0-7,3.68.83.83,0,0,0,.61.32H52.39a.83.83,0,0,0,.61-.32A7.92,7.92,0,0,0,46,81Z" fill="#6d1c3a" opacity="0.3"/><rect x="44" y="25" width="4" height="7" fill="#ccd1d9"/><line x1="42" y1="32" x2="48" y2="32" fill="none" stroke="#6e2a27" stroke-linejoin="round" stroke-width="2"/><path d="M48,41V26a1,1,0,0,0-1-1H43a1,1,0,0,0-1,1V41s-6,3-6,8V83a2.06,2.06,0,0,0,2.12,2H51.88A2.06,2.06,0,0,0,54,83V49C54,44,48,41,48,41Z" fill="none" stroke="#6e2a27" stroke-linejoin="round" stroke-width="2"/><rect x="39" y="59" width="9" height="14" fill="#ffd147"/><rect x="36" y="59" width="12" height="14" fill="none" stroke="#6e2a27" stroke-miterlimit="10" stroke-width="2"/><line x1="39" y1="64" x2="45" y2="64" fill="none" stroke="#6e2a27" stroke-linejoin="round" stroke-width="2"/><line x1="39" y1="68" x2="45" y2="68" fill="none" stroke="#6e2a27" stroke-linejoin="round" stroke-width="2"/><line x1="42" y1="36" x2="48" y2="36" fill="none" stroke="#6e2a27" stroke-linejoin="round" stroke-width="2"/></g><g id="glass"><path d="M58,51H74a0,0,0,0,1,0,0V63a8,8,0,0,1-8,8h0a8,8,0,0,1-8-8V51A0,0,0,0,1,58,51Z" fill="#fff"/><path d="M67,71h0c-4.42,0-6-3.58-6-8V51H74V63C74,67.42,71.42,71,67,71Z" fill="#f2633a"/><rect x="61" y="51" width="13" height="4" fill="#ffd147"/><path d="M58,51H74a0,0,0,0,1,0,0V63a8,8,0,0,1-8,8h0a8,8,0,0,1-8-8V51A0,0,0,0,1,58,51Z" fill="none" stroke="#6e2a27" stroke-linecap="round" stroke-linejoin="round" stroke-width="2"/><line x1="66" y1="85" x2="66" y2="71" fill="none" stroke="#6e2a27" stroke-linecap="round" stroke-linejoin="round" stroke-width="2"/><line x1="61" y1="85" x2="71" y2="85" fill="none" stroke="#6e2a27" stroke-linecap="round" stroke-linejoin="round" stroke-width="2"/></g></g></svg>